PathFileType	4	(X/Y/Z)	c:\Git\powerlifing_model_clean\simulations\HC835B\Session1\HC835B_CUT_0005\marker_experimental.trc
DataRate	CameraRate	NumFrames	NumMarkers	Units	OrigDataRate	OrigDataStartFrame	OrigNumFrames
240.000000	240.000000	4	38	mm	240.000000	65	75
Frame#	Time	RPSI			LPSI			RASI			LASI			RTH1			RTH2			RTH3			RTH4			RSK1			RSK2			RSK3			RSK4			RCAL1			RCAL2			RCAL3			RST			RPT			RTN			RFMB			RSMB			RVMB			RFMH			RSMH			RVMH			RPM			LTH1			LTH2			LTH3			LTH4			LSK1			LSK2			LSK3			LSK4			LCAL1			LCAL2			LCAL3			LFMH			LVMH			
		X1	Y1	Z1	X2	Y2	Z2	X3	Y3	Z3	X4	Y4	Z4	X5	Y5	Z5	X6	Y6	Z6	X7	Y7	Z7	X8	Y8	Z8	X9	Y9	Z9	X10	Y10	Z10	X11	Y11	Z11	X12	Y12	Z12	X13	Y13	Z13	X14	Y14	Z14	X15	Y15	Z15	X16	Y16	Z16	X17	Y17	Z17	X18	Y18	Z18	X19	Y19	Z19	X20	Y20	Z20	X21	Y21	Z21	X22	Y22	Z22	X23	Y23	Z23	X24	Y24	Z24	X25	Y25	Z25	X26	Y26	Z26	X27	Y27	Z27	X28	Y28	Z28	X29	Y29	Z29	X30	Y30	Z30	X31	Y31	Z31	X32	Y32	Z32	X33	Y33	Z33	X34	Y34	Z34	X35	Y35	Z35	X36	Y36	Z36	X37	Y37	Z37	X38	Y38	Z38	

66	0.2708333333333333	-103.5550994873047	1053.01123046875	-1011.821655273438	-174.561767578125	1005.83349609375	-945.7492675781252	-144.4997711181641	956.3711547851565	-1204.936401367188	-323.7441711425782	911.2110595703127	-1074.791748046875	103.0763702392578	792.1700439453127	-1119.324340820313	83.69302368164064	750.7005615234376	-1159.140380859375	133.2505798339844	713.6353149414064	-1110.945678710938	109.0423049926758	670.8169555664064	-1142.744140625	388.3182373046876	457.7764587402345	-831.6746826171877	396.1704711914064	407.4569396972657	-866.617370605469	420.2422485351564	413.2629699707032	-810.7275390625002	417.9627380371095	360.2396545410157	-839.025817871094	454.6232910156251	364.6409301757813	-684.4723510742189	431.0616455078126	340.5182800292969	-647.9396362304689	493.2480468750001	355.4971618652344	-656.3674316406251	424.3398742675782	275.5740051269532	-683.1256713867189	523.1991577148439	308.9014282226563	-689.5658569335939	444.2759704589845	237.2132263183594	-723.7939453125001	456.331024169922	202.6506347656251	-720.5928344726564	500.2198791503907	211.5196990966797	-750.5760498046876	545.4096069335939	261.2426452636719	-681.2221069335939	471.6133422851564	143.9945983886719	-708.9781494140626	519.2189331054689	146.5451965332032	-733.4555664062501	576.4904785156251	186.9720458984375	-696.1588134765626	521.8220825195314	87.76590728759767	-742.2145996093751	-324.1112670898438	654.8875122070314	-1125.630981445313	-362.0669250488282	682.4381713867189	-1164.3935546875	-341.9031982421876	610.6680908203126	-1196.967041015625	-367.2468566894532	644.6898803710939	-1241.113891601563	-164.4653015136719	266.4329833984376	-1410.357055664063	-198.2540130615235	254.2457733154297	-1448.94921875	-155.0205841064453	226.7387847900391	-1450.027465820313	-184.3120727539063	224.6136322021485	-1501.450073242188	-31.04925918579102	122.2394714355469	-1522.212768554688	-43.27670669555665	76.53225708007814	-1531.774047851563	-5.449116706848145	111.1590194702149	-1560.281127929688	-159.0090026855469	184.739990234375	-1704.72998046875	-194.2785797119141	94.60435485839845	-1652.163818359375	
67	0.275	-115.0094757080078	1054.208862304688	-1029.709716796875	-185.6266479492188	1006.267700195313	-963.9388427734377	-154.966796875	957.8649902343752	-1223.505493164063	-333.1303710937501	911.589294433594	-1093.292114257813	92.75748443603517	791.9307250976565	-1138.6494140625	73.60851287841798	751.4053344726564	-1179.319702148438	122.8636169433594	713.1653442382814	-1131.810913085938	99.16679382324222	671.2262573242189	-1164.931518554688	377.1548767089844	466.9995422363282	-849.4503173828127	386.8689880371095	415.4725952148439	-882.0749511718752	409.7502441406251	424.270477294922	-826.0574340820315	409.2070617675782	370.1057739257813	-852.0028076171877	444.5332641601564	382.2205505371094	-697.1162109375001	421.8018493652345	359.1334228515626	-659.5314941406251	483.4783630371095	374.8128356933594	-669.3008422851564	416.5595092773439	292.1436767578126	-692.1462402343751	514.0131835937501	327.4825439453126	-700.8527832031251	436.3501892089845	252.6818542480469	-731.3046264648439	449.2566833496095	218.6342926025391	-726.6044921875001	492.8076477050782	227.3108520507813	-757.7085571289064	537.4799804687501	280.6989746093751	-690.8755493164064	465.9085693359376	160.8564758300782	-713.0911865234376	513.0003662109376	163.6190032958985	-739.2605590820314	569.9030151367189	206.4947814941407	-703.2537231445314	517.0020751953126	103.6576385498047	-743.6311035156251	-332.1782531738282	650.3950805664064	-1143.936767578125	-368.7151489257813	677.3184814453126	-1184.2890625	-347.9505615234376	605.3743896484376	-1214.940551757813	-371.6725463867188	638.6747436523439	-1260.326293945313	-173.5606536865235	261.7070312500001	-1434.224853515625	-208.0213623046876	250.867172241211	-1472.992431640625	-165.225814819336	222.7498779296876	-1474.93310546875	-195.1584930419922	222.6274871826172	-1526.36962890625	-43.42113494873048	118.5044174194336	-1550.776489257813	-55.89595031738283	73.12163543701173	-1560.883056640625	-18.44030380249024	108.1480484008789	-1589.410522460938	-174.0568542480469	184.3723754882813	-1730.262817382813	-208.7292785644532	93.43338775634767	-1678.595458984375	
68	0.2791666666666667	-126.3805923461914	1054.962524414063	-1047.625732421875	-196.6949157714844	1006.452087402344	-982.0532226562502	-165.4683685302735	959.462829589844	-1242.019165039063	-342.6374206542969	911.7347412109377	-1111.721313476563	82.20508575439455	791.0389404296877	-1158.263549804688	62.97753524780275	751.4417114257814	-1199.76611328125	112.3283309936524	712.1545410156251	-1153.171875	88.68502807617189	671.0138549804689	-1187.286499023438	365.3437194824219	476.7073364257814	-867.7911376953127	377.0660705566407	424.1736145019532	-898.1038208007815	398.6701965332032	435.896697998047	-842.0127563476565	399.960906982422	380.6600952148438	-865.680847167969	433.2219543457032	399.838592529297	-710.9548339843751	411.0616760253907	377.9750061035157	-672.5748901367189	472.432830810547	394.4186401367189	-682.8734130859376	408.5632629394532	310.9797363281251	-702.9024047851564	503.9069824218751	346.6904296875001	-712.7155151367189	427.7863769531251	269.0973510742188	-740.3473510742189	441.5877075195314	235.7746124267579	-734.6708374023439	484.8482971191407	244.2173309326172	-765.8060913085939	528.4699096679689	300.8595275878907	-701.1718139648439	459.430877685547	178.8237915039063	-718.9972534179689	506.8260192871095	181.3751983642578	-743.4088745117189	562.2667846679689	226.9375610351563	-711.2192993164064	511.7878417968751	121.6763458251953	-747.5784912109376	-343.4140930175782	646.9247436523439	-1161.147338867188	-374.9619140625001	672.2225952148439	-1203.696411132813	-353.7630615234376	599.5874023437501	-1232.390380859375	-375.8441162109376	632.1775512695314	-1279.302612304688	-182.2841186523438	257.6947631835938	-1456.787353515625	-217.3133850097657	247.5574951171876	-1495.781982421875	-174.9463043212891	219.167221069336	-1498.304443359375	-205.4091949462891	220.1500854492188	-1549.529418945313	-54.89199829101564	114.9209289550782	-1577.170776367188	-67.4676971435547	69.71131896972658	-1587.568481445313	-30.38291358947755	104.8136215209961	-1616.341552734375	-188.0413208007813	182.9881134033203	-1754.040405273438	-222.0323486328126	91.43588256835939	-1702.791870117188	
69	0.2833333333333333	-137.7235412597657	1055.285888671875	-1065.538330078125	-207.7188720703126	1006.310974121094	-1000.100158691406	-175.7904205322266	961.0114746093752	-1260.465698242188	-352.2251281738282	911.6143798828127	-1130.069458007813	71.53769683837892	789.7050781250002	-1178.489135742188	51.93494415283205	750.7962036132814	-1220.563720703125	101.5250854492188	710.7142944335939	-1174.996826171875	77.75911712646486	670.2100830078126	-1209.768188476563	352.9078979492188	486.7172241210939	-886.7563476562502	366.7744140625001	433.491912841797	-914.8547973632815	386.7667846679689	447.8889465332032	-858.800231933594	390.2393188476564	391.8936767578126	-880.3319091796877	420.7976074218751	417.9463806152345	-725.7347412109376	399.6876831054689	396.2759399414064	-686.8242797851564	459.8979797363282	414.3963928222657	-697.2533569335939	398.1867065429689	328.9102478027344	-714.8710937500001	492.7365112304689	366.4324645996094	-725.3784790039064	418.4151306152345	286.1717834472657	-750.8076782226564	433.1621398925782	253.5921478271485	-743.7362060546876	476.381561279297	261.9074707031251	-775.2149658203127	518.3166503906251	321.6175231933594	-712.1564941406251	452.1506652832032	197.5231018066407	-726.4270019531251	499.6143493652345	199.9756774902344	-749.5974121093751	553.8095092773439	248.2886199951172	-719.6444702148439	505.9781494140626	140.7609405517578	-752.9778442382814	-349.7073059082032	642.4887084960939	-1178.517211914063	-381.6198730468751	668.3900756835939	-1221.60107421875	-358.8766784667969	593.9483642578126	-1249.759155273438	-379.7489013671876	626.1202392578126	-1297.503173828125	-190.6702423095703	253.6770477294922	-1478.575439453125	-226.416000366211	244.6560363769532	-1516.88525390625	-183.9936676025391	215.3556823730469	-1520.335815429688	-214.9606933593751	217.6800689697266	-1571.635131835938	-65.49044799804689	111.2151870727539	-1601.456665039063	-78.0977020263672	66.13279724121095	-1611.944213867188	-41.46348571777344	101.4373626708985	-1640.993041992188	-200.8695526123047	180.4698486328125	-1776.1806640625	-234.2023468017579	88.70773315429689	-1724.858520507813	
